<svg version="1.1" viewBox="0.0 0.0 960.0 600.0" fill="none" stroke="none" stroke-linecap="square" stroke-miterlimit="10" xmlns:xlink="http://www.w3.org/1999/xlink" xmlns="http://www.w3.org/2000/svg"><clipPath id="p.0"><path d="m0 0l960.0 0l0 600.0l-960.0 0l0 -600.0z" clip-rule="nonzero"/></clipPath><g clip-path="url(#p.0)"><path fill="#000000" fill-opacity="0.0" d="m0 0l960.0 0l0 600.0l-960.0 0z" fill-rule="evenodd"/><path fill="#800080" d="m376.38773 329.58325c5.792633 0 11.0338745 1.8147278 15.723785 5.444153c4.689911 3.6146545 8.423218 8.712097 11.199951 15.292267c2.776764 6.5654297 4.1651306 14.244751 4.1651306 23.037994c0 7.155548 -1.1226501 13.366882 -3.367981 18.633972c-2.2453003 5.25235 -5.347534 9.331757 -9.306702 12.238251c-3.959198 2.8917236 -8.549438 4.337616 -13.770782 4.337616c-5.872345 0 -11.180023 -1.8073425 -15.923065 -5.4220276c-4.729767 -3.629425 -8.50293 -8.748962 -11.31955 -15.358643c-2.8165894 -6.6244507 -4.224884 -14.333282 -4.224884 -23.126526c0 -7.1703186 1.1425781 -13.381653 3.4277344 -18.633972c2.2851562 -5.25235 5.4472046 -9.302246 9.486084 -12.149719c4.03891 -2.8622437 8.675659 -4.2933655 13.910278 -4.2933655zm2.0726013 -6.661316c-5.872345 0 -11.279694 1.1581726 -16.222015 3.4745178c-4.942322 2.3015747 -9.253571 5.517914 -12.933746 9.648956c-3.6669006 4.1163025 -6.523346 8.985046 -8.569366 14.606201c-2.0327454 5.6211853 -3.0491028 11.780884 -3.0491028 18.479095c0 8.527679 1.6341553 16.14798 4.902466 22.860931c3.2683105 6.6982117 7.712433 12.1128235 13.332336 16.243896c5.6331787 4.1163025 12.083466 6.4473877 19.35083 6.993286c6.045044 5.4441223 11.266388 9.523529 15.664001 12.23822c4.4108887 2.7294617 8.3302 4.544159 11.757965 5.444153c3.4410095 0.8999634 6.749176 1.3499756 9.9244995 1.3499756c3.1088867 0 5.9653625 -0.33935547 8.569366 -1.0180359c2.6173096 -0.6786499 4.86261 -1.556488 6.7359314 -2.633545l0 -2.190918c-0.89016724 0.36883545 -1.9928894 0.6639099 -3.3081665 0.8852234c-1.3020325 0.23605347 -2.809967 0.35409546 -4.523834 0.35409546c-2.6970215 0 -5.4737854 -0.50161743 -8.330231 -1.5048828c-2.8564453 -1.0032654 -5.9985657 -2.6851807 -9.4263 -5.0457764c-3.4277344 -2.3458557 -7.4666443 -5.5105286 -12.116669 -9.494049c5.7926025 -1.8147278 10.867798 -4.8318787 15.225555 -9.051422c4.3710327 -4.219574 7.7788696 -9.339142 10.22345 -15.358673c2.4578857 -6.0342712 3.6868286 -12.725098 3.6868286 -20.07248c0 -6.6982117 -1.0230103 -12.85791 -3.0690308 -18.479095c-2.0327454 -5.621155 -4.8891907 -10.489899 -8.569366 -14.606201c-3.6669006 -4.1310425 -7.9914246 -7.3473816 -12.973633 -9.648956c-4.9821777 -2.3163452 -10.409424 -3.4745178 -16.281769 -3.4745178z" fill-rule="evenodd"/><path stroke="#800080" stroke-width="8.0" stroke-linejoin="round" stroke-linecap="butt" d="m376.38773 329.58325c5.792633 0 11.0338745 1.8147278 15.723785 5.444153c4.689911 3.6146545 8.423218 8.712097 11.199951 15.292267c2.776764 6.5654297 4.1651306 14.244751 4.1651306 23.037994c0 7.155548 -1.1226501 13.366882 -3.367981 18.633972c-2.2453003 5.25235 -5.347534 9.331757 -9.306702 12.238251c-3.959198 2.8917236 -8.549438 4.337616 -13.770782 4.337616c-5.872345 0 -11.180023 -1.8073425 -15.923065 -5.4220276c-4.729767 -3.629425 -8.50293 -8.748962 -11.31955 -15.358643c-2.8165894 -6.6244507 -4.224884 -14.333282 -4.224884 -23.126526c0 -7.1703186 1.1425781 -13.381653 3.4277344 -18.633972c2.2851562 -5.25235 5.4472046 -9.302246 9.486084 -12.149719c4.03891 -2.8622437 8.675659 -4.2933655 13.910278 -4.2933655zm2.0726013 -6.661316c-5.872345 0 -11.279694 1.1581726 -16.222015 3.4745178c-4.942322 2.3015747 -9.253571 5.517914 -12.933746 9.648956c-3.6669006 4.1163025 -6.523346 8.985046 -8.569366 14.606201c-2.0327454 5.6211853 -3.0491028 11.780884 -3.0491028 18.479095c0 8.527679 1.6341553 16.14798 4.902466 22.860931c3.2683105 6.6982117 7.712433 12.1128235 13.332336 16.243896c5.6331787 4.1163025 12.083466 6.4473877 19.35083 6.993286c6.045044 5.4441223 11.266388 9.523529 15.664001 12.23822c4.4108887 2.7294617 8.3302 4.544159 11.757965 5.444153c3.4410095 0.8999634 6.749176 1.3499756 9.9244995 1.3499756c3.1088867 0 5.9653625 -0.33935547 8.569366 -1.0180359c2.6173096 -0.6786499 4.86261 -1.556488 6.7359314 -2.633545l0 -2.190918c-0.89016724 0.36883545 -1.9928894 0.6639099 -3.3081665 0.8852234c-1.3020325 0.23605347 -2.809967 0.35409546 -4.523834 0.35409546c-2.6970215 0 -5.4737854 -0.50161743 -8.330231 -1.5048828c-2.8564453 -1.0032654 -5.9985657 -2.6851807 -9.4263 -5.0457764c-3.4277344 -2.3458557 -7.4666443 -5.5105286 -12.116669 -9.494049c5.7926025 -1.8147278 10.867798 -4.8318787 15.225555 -9.051422c4.3710327 -4.219574 7.7788696 -9.339142 10.22345 -15.358673c2.4578857 -6.0342712 3.6868286 -12.725098 3.6868286 -20.07248c0 -6.6982117 -1.0230103 -12.85791 -3.0690308 -18.479095c-2.0327454 -5.621155 -4.8891907 -10.489899 -8.569366 -14.606201c-3.6669006 -4.1310425 -7.9914246 -7.3473816 -12.973633 -9.648956c-4.9821777 -2.3163452 -10.409424 -3.4745178 -16.281769 -3.4745178z" fill-rule="evenodd"/><path fill="#274e13" d="m660.2336 324.90176c-4.9851074 0 -9.796326 1.0481873 -14.433655 3.1445312c-4.6141357 2.0774841 -8.416687 4.8631897 -11.407776 8.357147c-2.9910889 3.4750366 -4.4866333 7.35614 -4.4866333 11.643311c0 5.7980347 1.9592896 10.292969 5.8778076 13.484711c3.918518 3.1917725 9.506531 6.11911 16.763916 8.782074c4.9851074 1.8697205 9.286255 3.5317078 12.90332 4.9859314c3.6403198 1.4353638 6.4575195 3.0878906 8.451538 4.9576416c1.9940796 1.8508301 2.9910889 4.457123 2.9910889 7.8188477c0 3.8338928 -1.5999146 6.8556824 -4.7996216 9.065369c-3.199768 2.190796 -7.6516113 3.2861938 -13.35553 3.2861938c-9.970215 0 -17.15802 -3.1917725 -21.563477 -9.575287l-6.8516846 -9.575287l-2.9910278 0l0 19.51886c4.9851074 2.0774841 9.900635 3.5789185 14.746643 4.5043335c4.8460083 0.92541504 10.619446 1.3881531 17.320374 1.3881531c4.683716 0 9.518127 -0.8970947 14.503235 -2.6912842c5.008301 -1.7941895 9.216675 -4.4571533 12.625122 -7.988861c3.4083862 -3.5505981 5.11261 -7.875519 5.11261 -12.9747925c0 -5.4580994 -1.3215942 -9.660278 -3.9649048 -12.606506c-2.6200562 -2.9651184 -5.9589233 -5.259796 -10.016602 -6.8840027c-4.057678 -1.6242065 -8.080505 -3.2484436 -12.0686035 -4.8726196c-6.7009277 -2.549652 -11.802002 -4.8442993 -15.303162 -6.884033c-3.4779663 -2.0397034 -5.21698 -5.023712 -5.21698 -8.952026c0 -3.493927 1.4607544 -6.222992 4.382263 -8.187164c2.9215088 -1.9830322 6.805237 -2.9745483 11.651245 -2.9745483c3.2693481 0 6.329956 0.6987915 9.181885 2.096344c2.8519897 1.397583 5.4836426 3.66391 7.8950806 6.7990417l7.0603027 9.207001l2.9910889 0l0 -18.95227c-4.5446167 -1.8697205 -9.031189 -3.3239746 -13.459839 -4.3627014c-4.4054565 -1.0387573 -9.251465 -1.5581055 -14.538025 -1.5581055z" fill-rule="evenodd"/><path stroke="#800080" stroke-width="8.0" stroke-linejoin="round" stroke-linecap="butt" d="m660.2336 324.90176c-4.9851074 0 -9.796326 1.0481873 -14.433655 3.1445312c-4.6141357 2.0774841 -8.416687 4.8631897 -11.407776 8.357147c-2.9910889 3.4750366 -4.4866333 7.35614 -4.4866333 11.643311c0 5.7980347 1.9592896 10.292969 5.8778076 13.484711c3.918518 3.1917725 9.506531 6.11911 16.763916 8.782074c4.9851074 1.8697205 9.286255 3.5317078 12.90332 4.9859314c3.6403198 1.4353638 6.4575195 3.0878906 8.451538 4.9576416c1.9940796 1.8508301 2.9910889 4.457123 2.9910889 7.8188477c0 3.8338928 -1.5999146 6.8556824 -4.7996216 9.065369c-3.199768 2.190796 -7.6516113 3.2861938 -13.35553 3.2861938c-9.970215 0 -17.15802 -3.1917725 -21.563477 -9.575287l-6.8516846 -9.575287l-2.9910278 0l0 19.51886c4.9851074 2.0774841 9.900635 3.5789185 14.746643 4.5043335c4.8460083 0.92541504 10.619446 1.3881531 17.320374 1.3881531c4.683716 0 9.518127 -0.8970947 14.503235 -2.6912842c5.008301 -1.7941895 9.216675 -4.4571533 12.625122 -7.988861c3.4083862 -3.5505981 5.11261 -7.875519 5.11261 -12.9747925c0 -5.4580994 -1.3215942 -9.660278 -3.9649048 -12.606506c-2.6200562 -2.9651184 -5.9589233 -5.259796 -10.016602 -6.8840027c-4.057678 -1.6242065 -8.080505 -3.2484436 -12.0686035 -4.8726196c-6.7009277 -2.549652 -11.802002 -4.8442993 -15.303162 -6.884033c-3.4779663 -2.0397034 -5.21698 -5.023712 -5.21698 -8.952026c0 -3.493927 1.4607544 -6.222992 4.382263 -8.187164c2.9215088 -1.9830322 6.805237 -2.9745483 11.651245 -2.9745483c3.2693481 0 6.329956 0.6987915 9.181885 2.096344c2.8519897 1.397583 5.4836426 3.66391 7.8950806 6.7990417l7.0603027 9.207001l2.9910889 0l0 -18.95227c-4.5446167 -1.8697205 -9.031189 -3.3239746 -13.459839 -4.3627014c-4.4054565 -1.0387573 -9.251465 -1.5581055 -14.538025 -1.5581055z" fill-rule="evenodd"/><path fill="#800080" d="m414.6691 330.39246l0 2.480835l9.64621 4.7612l0 45.582214c0 5.9473267 1.9109497 10.432892 5.7328796 13.456665c3.8385315 3.0237732 8.765503 4.535675 14.780884 4.535675c4.287201 0 8.242035 -0.8937683 11.864563 -2.681305c3.6391296 -1.8042603 7.3945923 -4.6526184 11.266357 -8.545105l0.7727051 0l0 9.697815l23.13095 0l0 -2.45578l-10.892487 -4.4604797l0 -62.371735l-23.106018 0l0 2.480835l10.867554 4.7612l0 46.81012c-1.9441833 1.7374268 -4.578003 3.0739136 -7.9013977 4.00943c-3.3068237 0.91882324 -6.3394165 1.3782349 -9.097839 1.3782349c-4.4866333 0 -8.134064 -1.1777649 -10.942352 -3.5332947c-2.8082886 -2.3722534 -4.2124023 -5.81369 -4.2124023 -10.32431l0 -45.582214z" fill-rule="evenodd"/><path stroke="#800080" stroke-width="8.0" stroke-linejoin="round" stroke-linecap="butt" d="m414.6691 330.39246l0 2.480835l9.64621 4.7612l0 45.582214c0 5.9473267 1.9109497 10.432892 5.7328796 13.456665c3.8385315 3.0237732 8.765503 4.535675 14.780884 4.535675c4.287201 0 8.242035 -0.8937683 11.864563 -2.681305c3.6391296 -1.8042603 7.3945923 -4.6526184 11.266357 -8.545105l0.7727051 0l0 9.697815l23.13095 0l0 -2.45578l-10.892487 -4.4604797l0 -62.371735l-23.106018 0l0 2.480835l10.867554 4.7612l0 46.81012c-1.9441833 1.7374268 -4.578003 3.0739136 -7.9013977 4.00943c-3.3068237 0.91882324 -6.3394165 1.3782349 -9.097839 1.3782349c-4.4866333 0 -8.134064 -1.1777649 -10.942352 -3.5332947c-2.8082886 -2.3722534 -4.2124023 -5.81369 -4.2124023 -10.32431l0 -45.582214z" fill-rule="evenodd"/><path fill="#800080" d="m529.02576 366.10324l0 22.274292c-2.6865234 1.3068848 -5.088379 2.2135315 -7.2055054 2.7199707c-2.102478 0.5064087 -4.2269287 0.75961304 -6.37323 0.75961304c-6.7309265 0 -10.096405 -3.11203 -10.096405 -9.33609c0 -2.3197021 0.48910522 -4.427063 1.4673767 -6.322052c0.99282837 -1.9113464 3.1464539 -3.6919556 6.4608154 -5.341919c3.3289795 -1.6662903 8.577942 -3.250885 15.746948 -4.7538147zm-8.607178 -35.67804c-3.1391602 0 -6.0811768 0.60443115 -8.826141 1.8132935c-2.7303467 1.1925354 -5.3511963 2.695465 -7.8625183 4.508789c-2.4237366 1.6989441 -4.2196045 3.7082825 -5.387665 6.028015c-1.1534729 2.3033752 -1.7301941 4.55777 -1.7301941 6.763153c0 1.8132935 0.24090576 2.9731445 0.7227173 3.4795837c0.49642944 0.4900818 1.4162903 0.7351074 2.759552 0.7351074l7.008362 0l0.6789551 -0.75961304l0 -4.2147217c0 -3.4142456 0.67163086 -6.1423645 2.0148926 -8.184387c1.3432617 -2.0583496 3.7159119 -3.0875244 7.1178894 -3.0875244c3.1391602 0 5.942505 1.2333679 8.410034 3.7001343c2.4675293 2.450409 3.701294 5.3745728 3.701294 8.772491l0 11.00235l-12.768372 3.308075c-7.723816 2.0093384 -13.221008 4.819153 -16.491577 8.429413c-3.2705688 3.6102905 -4.9058533 7.8740234 -4.9058533 12.791199c0 4.933502 1.387085 8.78064 4.1612244 11.541443c2.7887268 2.7444763 6.285614 4.116699 10.490631 4.116699c3.7815857 0 7.395294 -0.8494873 10.841095 -2.5484314c3.4603882 -1.6989441 6.3513184 -3.8553162 8.672852 -6.4690857l0.81030273 0c0.7154541 2.711792 1.9492188 4.892639 3.701294 6.5426025c1.7521362 1.6499329 4.015259 2.4749146 6.7893677 2.4749146c3.0515747 0 5.628601 -0.8249817 7.73114 -2.4749146c2.1170654 -1.6499634 3.7158813 -3.5776062 4.7963257 -5.7829895l0 -0.46557617l-0.4161377 -0.29403687l-5.1029663 0c-2.0587158 0 -3.672058 -0.25323486 -4.840149 -0.75964355c-1.1680298 -0.5064087 -2.065979 -1.1108398 -2.6938477 -1.8132935l0 -42.759766c0 -4.2147217 -0.9417114 -7.4982605 -2.8252563 -9.8506775c-1.8834839 -2.3523865 -4.3291016 -4.0268555 -7.336853 -5.023346c-3.0077515 -1.0128479 -6.081238 -1.5192566 -9.220398 -1.5192566z" fill-rule="evenodd"/><path stroke="#800080" stroke-width="8.0" stroke-linejoin="round" stroke-linecap="butt" d="m529.02576 366.10324l0 22.274292c-2.6865234 1.3068848 -5.088379 2.2135315 -7.2055054 2.7199707c-2.102478 0.5064087 -4.2269287 0.75961304 -6.37323 0.75961304c-6.7309265 0 -10.096405 -3.11203 -10.096405 -9.33609c0 -2.3197021 0.48910522 -4.427063 1.4673767 -6.322052c0.99282837 -1.9113464 3.1464539 -3.6919556 6.4608154 -5.341919c3.3289795 -1.6662903 8.577942 -3.250885 15.746948 -4.7538147zm-8.607178 -35.67804c-3.1391602 0 -6.0811768 0.60443115 -8.826141 1.8132935c-2.7303467 1.1925354 -5.3511963 2.695465 -7.8625183 4.508789c-2.4237366 1.6989441 -4.2196045 3.7082825 -5.387665 6.028015c-1.1534729 2.3033752 -1.7301941 4.55777 -1.7301941 6.763153c0 1.8132935 0.24090576 2.9731445 0.7227173 3.4795837c0.49642944 0.4900818 1.4162903 0.7351074 2.759552 0.7351074l7.008362 0l0.6789551 -0.75961304l0 -4.2147217c0 -3.4142456 0.67163086 -6.1423645 2.0148926 -8.184387c1.3432617 -2.0583496 3.7159119 -3.0875244 7.1178894 -3.0875244c3.1391602 0 5.942505 1.2333679 8.410034 3.7001343c2.4675293 2.450409 3.701294 5.3745728 3.701294 8.772491l0 11.00235l-12.768372 3.308075c-7.723816 2.0093384 -13.221008 4.819153 -16.491577 8.429413c-3.2705688 3.6102905 -4.9058533 7.8740234 -4.9058533 12.791199c0 4.933502 1.387085 8.78064 4.1612244 11.541443c2.7887268 2.7444763 6.285614 4.116699 10.490631 4.116699c3.7815857 0 7.395294 -0.8494873 10.841095 -2.5484314c3.4603882 -1.6989441 6.3513184 -3.8553162 8.672852 -6.4690857l0.81030273 0c0.7154541 2.711792 1.9492188 4.892639 3.701294 6.5426025c1.7521362 1.6499329 4.015259 2.4749146 6.7893677 2.4749146c3.0515747 0 5.628601 -0.8249817 7.73114 -2.4749146c2.1170654 -1.6499634 3.7158813 -3.5776062 4.7963257 -5.7829895l0 -0.46557617l-0.4161377 -0.29403687l-5.1029663 0c-2.0587158 0 -3.672058 -0.25323486 -4.840149 -0.75964355c-1.1680298 -0.5064087 -2.065979 -1.1108398 -2.6938477 -1.8132935l0 -42.759766c0 -4.2147217 -0.9417114 -7.4982605 -2.8252563 -9.8506775c-1.8834839 -2.3523865 -4.3291016 -4.0268555 -7.336853 -5.023346c-3.0077515 -1.0128479 -6.081238 -1.5192566 -9.220398 -1.5192566z" fill-rule="evenodd"/><path fill="#800080" d="m588.45355 337.29694c2.76062 0 5.2576294 0.55526733 7.490967 1.6657715c2.2488403 1.0934143 4.520996 2.7420654 6.816345 4.945984l0 44.078186c-2.2953491 1.5717773 -4.6605225 2.7591858 -7.09552 3.5621338c-2.4194336 0.7858887 -4.7768555 1.178833 -7.0722656 1.178833c-5.800476 0 -10.802185 -1.9647217 -15.005249 -5.894165c-4.1875 -3.9465332 -6.28125 -10.276367 -6.28125 -18.989502c0 -7.3463745 0.9770508 -13.249084 2.9312744 -17.70816c1.9541626 -4.476166 4.520935 -7.730774 7.7003784 -9.763855c3.1948853 -2.0501404 6.700012 -3.0752258 10.51532 -3.0752258zm24.86914 -53.380737l-19.867432 8.661865l0 1.1019592l9.305603 8.174988l0 29.137726c-1.628479 -0.42712402 -3.4430542 -0.7687988 -5.4437866 -1.0250854c-2.0006714 -0.2562561 -4.334839 -0.3843994 -7.0024414 -0.3843994c-6.1882324 0 -11.903381 1.6315918 -17.145569 4.894745c-5.2421265 3.2460632 -9.437378 7.995575 -12.585754 14.248535c-3.1484375 6.2358704 -4.722595 13.812866 -4.722595 22.731018c0 6.611725 1.0701294 12.309448 3.2103882 17.09314c2.1558228 4.766571 5.1103516 8.465393 8.863586 11.096405c3.7687988 2.6139526 8.033813 3.920929 12.795166 3.920929c3.8153076 0 7.413452 -0.7602539 10.794495 -2.2807922c3.3810425 -1.5205383 6.8861694 -3.9550781 10.51532 -7.30365l1.0003662 0l1.1399536 8.02121l20.146606 0l0 -2.511444l-10.143127 -4.5615845l0 -111.015564z" fill-rule="evenodd"/><path stroke="#800080" stroke-width="8.0" stroke-linejoin="round" stroke-linecap="butt" d="m588.45355 337.29694c2.76062 0 5.2576294 0.55526733 7.490967 1.6657715c2.2488403 1.0934143 4.520996 2.7420654 6.816345 4.945984l0 44.078186c-2.2953491 1.5717773 -4.6605225 2.7591858 -7.09552 3.5621338c-2.4194336 0.7858887 -4.7768555 1.178833 -7.0722656 1.178833c-5.800476 0 -10.802185 -1.9647217 -15.005249 -5.894165c-4.1875 -3.9465332 -6.28125 -10.276367 -6.28125 -18.989502c0 -7.3463745 0.9770508 -13.249084 2.9312744 -17.70816c1.9541626 -4.476166 4.520935 -7.730774 7.7003784 -9.763855c3.1948853 -2.0501404 6.700012 -3.0752258 10.51532 -3.0752258zm24.86914 -53.380737l-19.867432 8.661865l0 1.1019592l9.305603 8.174988l0 29.137726c-1.628479 -0.42712402 -3.4430542 -0.7687988 -5.4437866 -1.0250854c-2.0006714 -0.2562561 -4.334839 -0.3843994 -7.0024414 -0.3843994c-6.1882324 0 -11.903381 1.6315918 -17.145569 4.894745c-5.2421265 3.2460632 -9.437378 7.995575 -12.585754 14.248535c-3.1484375 6.2358704 -4.722595 13.812866 -4.722595 22.731018c0 6.611725 1.0701294 12.309448 3.2103882 17.09314c2.1558228 4.766571 5.1103516 8.465393 8.863586 11.096405c3.7687988 2.6139526 8.033813 3.920929 12.795166 3.920929c3.8153076 0 7.413452 -0.7602539 10.794495 -2.2807922c3.3810425 -1.5205383 6.8861694 -3.9550781 10.51532 -7.30365l1.0003662 0l1.1399536 8.02121l20.146606 0l0 -2.511444l-10.143127 -4.5615845l0 -111.015564z" fill-rule="evenodd"/><path fill="#274e13" d="m311.45255 323.30447l0 0c0 -2.65271 2.1504517 -4.8031616 4.8031616 -4.8031616l0 0c1.2738647 0 2.495575 0.5060425 3.3963318 1.4067993c0.90078735 0.90078735 1.4068298 2.122467 1.4068298 3.3963623l0 0c0 2.6526794 -2.1504517 4.803131 -4.8031616 4.803131l0 0c-2.65271 0 -4.8031616 -2.1504517 -4.8031616 -4.803131z" fill-rule="evenodd"/><path stroke="#38761d" stroke-width="1.0" stroke-linejoin="round" stroke-linecap="butt" d="m311.45255 323.30447l0 0c0 -2.65271 2.1504517 -4.8031616 4.8031616 -4.8031616l0 0c1.2738647 0 2.495575 0.5060425 3.3963318 1.4067993c0.90078735 0.90078735 1.4068298 2.122467 1.4068298 3.3963623l0 0c0 2.6526794 -2.1504517 4.803131 -4.8031616 4.803131l0 0c-2.65271 0 -4.8031616 -2.1504517 -4.8031616 -4.803131z" fill-rule="evenodd"/><path fill="#274e13" d="m321.05887 343.74802l0 0c0 -2.6526794 2.1504211 -4.803131 4.803131 -4.803131l0 0c1.2738953 0 2.495575 0.5060425 3.3963623 1.4067993c0.90075684 0.90078735 1.4067993 2.122467 1.4067993 3.3963318l0 0c0 2.65271 -2.1504517 4.8031616 -4.8031616 4.8031616l0 0c-2.65271 0 -4.803131 -2.1504517 -4.803131 -4.8031616z" fill-rule="evenodd"/><path stroke="#38761d" stroke-width="1.0" stroke-linejoin="round" stroke-linecap="butt" d="m321.05887 343.74802l0 0c0 -2.6526794 2.1504211 -4.803131 4.803131 -4.803131l0 0c1.2738953 0 2.495575 0.5060425 3.3963623 1.4067993c0.90075684 0.90078735 1.4067993 2.122467 1.4067993 3.3963318l0 0c0 2.65271 -2.1504517 4.8031616 -4.8031616 4.8031616l0 0c-2.65271 0 -4.803131 -2.1504517 -4.803131 -4.8031616z" fill-rule="evenodd"/><path fill="#274e13" d="m321.05887 343.74802l0 0c0 -2.6526794 2.1504211 -4.803131 4.803131 -4.803131l0 0c1.2738953 0 2.495575 0.5060425 3.3963623 1.4067993c0.90075684 0.90078735 1.4067993 2.122467 1.4067993 3.3963318l0 0c0 2.65271 -2.1504517 4.8031616 -4.8031616 4.8031616l0 0c-2.65271 0 -4.803131 -2.1504517 -4.803131 -4.8031616z" fill-rule="evenodd"/><path stroke="#38761d" stroke-width="1.0" stroke-linejoin="round" stroke-linecap="butt" d="m321.05887 343.74802l0 0c0 -2.6526794 2.1504211 -4.803131 4.803131 -4.803131l0 0c1.2738953 0 2.495575 0.5060425 3.3963623 1.4067993c0.90075684 0.90078735 1.4067993 2.122467 1.4067993 3.3963318l0 0c0 2.65271 -2.1504517 4.8031616 -4.8031616 4.8031616l0 0c-2.65271 0 -4.803131 -2.1504517 -4.803131 -4.8031616z" fill-rule="evenodd"/><path fill="#274e13" d="m257.8819 291.8203c-9.886642 2.6071167 -18.141129 7.4339905 -24.763458 14.480621c-6.60408 7.01532 -11.078766 15.52298 -13.424057 25.52301c-2.327057 9.9687195 -1.9877319 20.65216 1.0179596 32.050293c3.894333 14.768036 11.289352 25.525482 22.185059 32.27237c10.889191 6.722107 23.717773 8.136017 38.48581 4.2416687c9.291962 -2.4502869 16.773834 -6.940918 22.445557 -13.471863c5.696533 -6.5374756 9.425903 -13.550018 11.188141 -21.037659l-0.5978699 -2.2672424l-0.66900635 0.17642212c-9.66687 9.0685425 -18.687897 14.707092 -27.06305 16.915619c-10.035309 2.6463318 -18.447418 2.704712 -25.236328 0.1751709c-6.764145 -2.5360413 -12.213058 -6.717499 -16.346756 -12.544373c-4.133713 -5.826874 -7.164337 -12.395142 -9.091904 -19.704834c-3.129837 -11.868927 -3.1759338 -21.741882 -0.13827515 -29.618835c3.055893 -7.908264 8.771423 -12.966675 17.146591 -15.175201c5.0052643 -1.3198853 9.4691925 -1.4767151 13.391769 -0.4704895c3.9473267 0.99972534 7.462677 2.7229004 10.54599 5.169525l10.532013 8.432892l1.5982361 -0.42144775l6.7390747 -9.568573c1.577179 -2.059021 2.0847778 -4.1539917 1.5228577 -6.2849426c-0.43780518 -1.6601868 -2.2530823 -3.619629 -5.445862 -5.8783875c-3.9298706 -2.5414124 -9.065063 -4.0759277 -15.405579 -4.6035767c-6.315735 -0.53414917 -12.521393 0.0024414062 -18.616913 1.6098328z" fill-rule="evenodd"/><path stroke="#274e13" stroke-width="8.0" stroke-linejoin="round" stroke-linecap="butt" d="m257.8819 291.8203c-9.886642 2.6071167 -18.141129 7.4339905 -24.763458 14.480621c-6.60408 7.01532 -11.078766 15.52298 -13.424057 25.52301c-2.327057 9.9687195 -1.9877319 20.65216 1.0179596 32.050293c3.894333 14.768036 11.289352 25.525482 22.185059 32.27237c10.889191 6.722107 23.717773 8.136017 38.48581 4.2416687c9.291962 -2.4502869 16.773834 -6.940918 22.445557 -13.471863c5.696533 -6.5374756 9.425903 -13.550018 11.188141 -21.037659l-0.5978699 -2.2672424l-0.66900635 0.17642212c-9.66687 9.0685425 -18.687897 14.707092 -27.06305 16.915619c-10.035309 2.6463318 -18.447418 2.704712 -25.236328 0.1751709c-6.764145 -2.5360413 -12.213058 -6.717499 -16.346756 -12.544373c-4.133713 -5.826874 -7.164337 -12.395142 -9.091904 -19.704834c-3.129837 -11.868927 -3.1759338 -21.741882 -0.13827515 -29.618835c3.055893 -7.908264 8.771423 -12.966675 17.146591 -15.175201c5.0052643 -1.3198853 9.4691925 -1.4767151 13.391769 -0.4704895c3.9473267 0.99972534 7.462677 2.7229004 10.54599 5.169525l10.532013 8.432892l1.5982361 -0.42144775l6.7390747 -9.568573c1.577179 -2.059021 2.0847778 -4.1539917 1.5228577 -6.2849426c-0.43780518 -1.6601868 -2.2530823 -3.619629 -5.445862 -5.8783875c-3.9298706 -2.5414124 -9.065063 -4.0759277 -15.405579 -4.6035767c-6.315735 -0.53414917 -12.521393 0.0024414062 -18.616913 1.6098328z" fill-rule="evenodd"/><path fill="#274e13" d="m302.4669 298.75177c4.555359 -1.7670593 8.917236 -1.5244446 13.085632 0.72787476c4.176422 2.2289429 7.9529114 5.737335 11.329468 10.525177c3.3914185 4.782074 6.1970825 10.034485 8.416992 15.757202c1.8100586 4.6662292 2.9960022 9.351715 3.5577698 14.056488c0.55493164 4.6871643 0.17129517 8.847076 -1.15094 12.479706c-1.314209 3.609253 -3.7964172 6.1218567 -7.4466248 7.5378113c-4.555359 1.7670898 -8.943481 1.5447693 -13.164429 -0.66690063c-4.2277527 -2.229309 -8.052155 -5.7292175 -11.473267 -10.499786c-3.4210815 -4.770569 -6.241577 -10.017212 -8.461487 -15.73996c-1.8510437 -4.7718506 -3.0215454 -9.483582 -3.5114746 -14.135193c-0.49676514 -4.66922 -0.08804321 -8.808472 1.2261658 -12.417725c1.3222351 -3.63266 3.8529663 -6.174225 7.5921936 -7.624695zm-0.9963379 -7.4533386c-6.0243225 2.3368835 -10.639587 6.0618286 -13.845795 11.174835c-3.2130432 5.095398 -4.960022 10.999603 -5.240967 17.712677c-0.28775024 6.6954956 0.97543335 13.670532 3.7895813 20.925201c2.8073425 7.23703 6.578186 13.239349 11.312592 18.006927c4.7344055 4.767578 10.00589 7.9492493 15.814514 9.545044c5.8086243 1.5957947 11.725098 1.2252502 17.74942 -1.1116333c6.009491 -2.3311462 10.620758 -6.0444336 13.833801 -11.139801c3.2278748 -5.1011353 4.9823 -11.00827 5.263214 -17.721344c0.28094482 -6.7130737 -0.9822693 -13.688141 -3.7895813 -20.92517c-2.814148 -7.2546387 -6.585022 -13.256958 -11.312592 -18.006927c-4.734375 -4.767578 -10.013306 -7.9463806 -15.836761 -9.536438c-5.81546 -1.6134033 -11.727936 -1.2545166 -17.737427 1.0766296z" fill-rule="evenodd"/><path stroke="#274e13" stroke-width="8.0" stroke-linejoin="round" stroke-linecap="butt" d="m302.4669 298.75177c4.555359 -1.7670593 8.917236 -1.5244446 13.085632 0.72787476c4.176422 2.2289429 7.9529114 5.737335 11.329468 10.525177c3.3914185 4.782074 6.1970825 10.034485 8.416992 15.757202c1.8100586 4.6662292 2.9960022 9.351715 3.5577698 14.056488c0.55493164 4.6871643 0.17129517 8.847076 -1.15094 12.479706c-1.314209 3.609253 -3.7964172 6.1218567 -7.4466248 7.5378113c-4.555359 1.7670898 -8.943481 1.5447693 -13.164429 -0.66690063c-4.2277527 -2.229309 -8.052155 -5.7292175 -11.473267 -10.499786c-3.4210815 -4.770569 -6.241577 -10.017212 -8.461487 -15.73996c-1.8510437 -4.7718506 -3.0215454 -9.483582 -3.5114746 -14.135193c-0.49676514 -4.66922 -0.08804321 -8.808472 1.2261658 -12.417725c1.3222351 -3.63266 3.8529663 -6.174225 7.5921936 -7.624695zm-0.9963379 -7.4533386c-6.0243225 2.3368835 -10.639587 6.0618286 -13.845795 11.174835c-3.2130432 5.095398 -4.960022 10.999603 -5.240967 17.712677c-0.28775024 6.6954956 0.97543335 13.670532 3.7895813 20.925201c2.8073425 7.23703 6.578186 13.239349 11.312592 18.006927c4.7344055 4.767578 10.00589 7.9492493 15.814514 9.545044c5.8086243 1.5957947 11.725098 1.2252502 17.74942 -1.1116333c6.009491 -2.3311462 10.620758 -6.0444336 13.833801 -11.139801c3.2278748 -5.1011353 4.9823 -11.00827 5.263214 -17.721344c0.28094482 -6.7130737 -0.9822693 -13.688141 -3.7895813 -20.92517c-2.814148 -7.2546387 -6.585022 -13.256958 -11.312592 -18.006927c-4.734375 -4.767578 -10.013306 -7.9463806 -15.836761 -9.536438c-5.81546 -1.6134033 -11.727936 -1.2545166 -17.737427 1.0766296z" fill-rule="evenodd"/><path fill="#000000" fill-opacity="0.0" d="m0 0l314.96063 0l0 35.496063l-314.96063 0z" fill-rule="evenodd"/></g></svg>